<svg width="56" height="56" viewBox="0 0 56 56" fill="none" xmlns="http://www.w3.org/2000/svg">
<circle cx="28" cy="28" r="28" fill="white"/>
<path d="M41.1706 30.3191C40.5655 30.3191 39.9693 30.0878 39.5065 29.625C33.1528 23.2802 22.8302 23.2802 16.4765 29.625C15.5599 30.5416 14.0649 30.5416 13.1484 29.625C12.2318 28.7085 12.2318 27.2135 13.1484 26.2969C21.3352 18.11 34.6478 18.11 42.8347 26.2969C43.7513 27.2135 43.7513 28.7085 42.8347 29.625C42.3719 30.0878 41.7668 30.3191 41.1706 30.3191Z" fill="black"/>
<path d="M34.7987 36.6817C34.1935 36.6817 33.5973 36.4503 33.1346 35.9876C31.7642 34.6172 29.931 33.8608 27.9911 33.8608C26.0512 33.8608 24.218 34.6172 22.8476 35.9876C21.931 36.9042 20.436 36.9042 19.5195 35.9876C18.6029 35.071 18.6029 33.576 19.5195 32.6594C21.7798 30.3991 24.7875 29.1533 27.9911 29.1533C31.1947 29.1533 34.2024 30.3991 36.4627 32.6683C37.3793 33.5849 37.3793 35.0799 36.4627 35.9965C36.0089 36.4503 35.4038 36.6817 34.7987 36.6817Z" fill="black"/>
<path d="M27.9909 44.2813C29.7258 44.2813 31.1321 42.8749 31.1321 41.14C31.1321 39.4052 29.7258 37.9988 27.9909 37.9988C26.256 37.9988 24.8496 39.4052 24.8496 41.14C24.8496 42.8749 26.256 44.2813 27.9909 44.2813Z" fill="black"/>
<path d="M47.6396 23.8498C47.0345 23.8498 46.4383 23.6185 45.9755 23.1557C36.0534 13.2425 19.9288 13.2425 10.0156 23.1557C9.099 24.0723 7.604 24.0723 6.68743 23.1557C5.77086 22.2392 5.77086 20.7442 6.68743 19.8276C12.3826 14.1324 19.9466 11 28 11C36.0534 11 43.6174 14.1324 49.3126 19.8276C50.2291 20.7442 50.2291 22.2392 49.3126 23.1557C48.8409 23.6185 48.2358 23.8498 47.6396 23.8498Z" fill="black"/>
</svg>
