<svg width="352" height="512" viewBox="0 0 352 512" fill="none" xmlns="http://www.w3.org/2000/svg">
<path d="M0 64C0 28.7 28.7 0 64 0H288C323.3 0 352 28.7 352 64V448C352 483.3 323.3 512 288 512H64C28.7 512 0 483.3 0 448V64ZM208 448C208 439.513 204.629 431.374 198.627 425.373C192.626 419.371 184.487 416 176 416C167.513 416 159.374 419.371 153.373 425.373C147.371 431.374 144 439.513 144 448C144 456.487 147.371 464.626 153.373 470.627C159.374 476.629 167.513 480 176 480C184.487 480 192.626 476.629 198.627 470.627C204.629 464.626 208 456.487 208 448ZM288 64H64V384H288V64Z" fill="black"/>
</svg>
