<svg width="112" height="118" viewBox="0 0 112 118" fill="none" xmlns="http://www.w3.org/2000/svg">
<path d="M55.82 117.969C86.6485 117.969 111.64 92.9776 111.64 62.1491C111.64 31.3206 86.6485 6.3291 55.82 6.3291C24.9915 6.3291 0 31.3206 0 62.1491C0 92.9776 24.9915 117.969 55.82 117.969Z" fill="#FCE8E3"/>
<path d="M70.5867 54.7969H41.0537V88.1549H70.5867V54.7969Z" fill="#E2988F"/>
<path d="M84.7437 31.38C83.1147 27.485 79.7857 29.397 79.7857 29.397C81.7077 11.689 72.7037 0 55.8197 0C38.9357 0 29.9327 11.689 31.8547 29.398C31.8547 29.398 28.5267 27.486 26.8967 31.381C25.2677 35.276 28.2427 44.413 30.0837 47.316C31.9257 50.22 35.1827 52.415 35.1827 52.415C35.1827 52.415 35.3957 55.673 36.2447 57.939C37.0947 60.205 46.7267 70.626 49.5597 72.22C53.2737 74.406 58.7457 74.406 62.0797 72.22C64.9127 70.627 74.5447 60.206 75.3947 57.939C76.2447 55.672 76.4567 52.415 76.4567 52.415C76.4567 52.415 79.7147 50.219 81.5557 47.316C83.3977 44.412 86.3727 35.276 84.7437 31.38Z" fill="#E2988F"/>
<path d="M55.9684 74.2251C53.6484 74.2251 51.2774 73.6651 49.3704 72.5431C47.6554 71.5791 43.7114 67.6321 40.7754 64.3741L41.3324 63.8721C44.3214 67.1871 48.1704 71.0071 49.7444 71.8931C53.3374 74.0071 58.6634 74.0121 61.8744 71.9061C63.4714 71.0071 67.3194 67.1881 70.3094 63.8721L70.8664 64.3741C67.9304 67.6321 63.9864 71.5791 62.2644 72.5461C60.5604 73.6641 58.2904 74.2251 55.9684 74.2251Z" fill="#C46966"/>
<path d="M34.6233 44.7725L33.8789 44.8643L34.8156 52.4599L35.56 52.3681L34.6233 44.7725Z" fill="#C46966"/>
<path d="M76.9684 44.7767L76.123 52.373L76.8695 52.4561L77.7148 44.8597L76.9684 44.7767Z" fill="#C46966"/>
<path d="M29.0731 40.1386C28.9161 39.5646 27.5891 34.4896 29.4211 33.1006C30.0261 32.7056 30.521 32.7466 30.834 32.8486C31.767 33.1516 32.2311 34.3036 32.2821 34.4346L31.582 34.7036C31.479 34.4406 31.1051 33.7246 30.6011 33.5616C30.3721 33.4856 30.1241 33.5366 29.8521 33.7146C28.7971 34.5156 29.2551 37.9606 29.7961 39.9406L29.0731 40.1386Z" fill="#C46966"/>
<path d="M82.5684 40.1382L81.8454 39.9402C82.3864 37.9602 82.8454 34.5152 81.7684 33.6982C81.5164 33.5352 81.2714 33.4862 81.0394 33.5612C80.4374 33.7562 80.0634 34.6932 80.0604 34.7022L79.3594 34.4332C79.4104 34.3032 79.8754 33.1502 80.8074 32.8472C81.1204 32.7452 81.6164 32.7052 82.1984 33.0842C84.0524 34.4882 82.7254 39.5632 82.5684 40.1382Z" fill="#C46966"/>
<path d="M34.2473 38.711C39.2583 38.737 35.4683 22.568 39.3993 18.655C41.3973 16.667 44.3143 16.99 46.8143 17.628C49.7273 18.371 52.7353 19.374 55.8093 19.455C59.0633 19.541 62.1483 18.349 65.2683 17.593C67.6893 17.007 70.3223 16.747 72.2393 18.656C76.1703 22.569 72.3813 38.738 77.3913 38.712C77.0443 34.974 77.0343 30.877 79.7843 29.399L79.7863 29.395C81.7073 11.688 72.7023 0.00195312 55.8203 0.00195312C38.9373 0.00195312 29.9323 11.691 31.8543 29.399C34.0873 30.849 34.5983 34.799 34.2473 38.711Z" fill="#4C224B"/>
<path d="M103.526 91.1441C87.7653 84.1121 70.5863 81.6191 70.5863 81.6191C62.7033 89.8381 48.0213 89.9541 41.0533 81.6191C41.0533 81.6191 23.8743 84.1121 8.11328 91.1441C17.9093 107.228 35.6103 117.969 55.8203 117.969C76.0303 117.969 93.7303 107.228 103.526 91.1441Z" fill="#F4BA5D"/>
<path d="M37.0635 82.1873L41.0535 75.0303L53.9725 86.6273L46.0685 95.2893L37.0635 82.1873Z" fill="white"/>
<path d="M74.5614 82.1873L70.5714 75.0303L57.6514 86.6273L65.5564 95.2893L74.5614 82.1873Z" fill="white"/>
</svg>
